<svg width="159" height="19" viewBox="0 0 159 19" fill="none" xmlns="http://www.w3.org/2000/svg">
<path d="M37.5142 18.24C36.3942 18.24 35.4102 18.032 34.5622 17.616C33.7302 17.184 33.0822 16.584 32.6182 15.816C32.1542 15.032 31.9222 14.112 31.9222 13.056V9.74398C31.9222 8.67198 32.1542 7.75198 32.6182 6.98398C33.0822 6.21598 33.7302 5.62398 34.5622 5.20798C35.4102 4.77598 36.3942 4.55998 37.5142 4.55998C39.1782 4.55998 40.5062 4.99198 41.4982 5.85598C42.4902 6.70398 43.0102 7.86398 43.0582 9.33598H40.0582C40.0102 8.64798 39.7622 8.11998 39.3142 7.75198C38.8822 7.36798 38.2822 7.17598 37.5142 7.17598C36.7142 7.17598 36.0822 7.39998 35.6182 7.84798C35.1542 8.27998 34.9222 8.90398 34.9222 9.71998V13.056C34.9222 13.872 35.1542 14.504 35.6182 14.952C36.0822 15.4 36.7142 15.624 37.5142 15.624C38.2822 15.624 38.8822 15.44 39.3142 15.072C39.7622 14.688 40.0102 14.152 40.0582 13.464H43.0582C43.0102 14.936 42.4902 16.104 41.4982 16.968C40.5062 17.816 39.1782 18.24 37.5142 18.24Z" fill="white"/>
<path d="M46.5528 18V0.47998H49.5528V9.98398H51.6408L54.8568 4.79998H58.2168L54.2328 11.184L58.2888 18H54.8568L51.6408 12.528H49.5528V18H46.5528Z" fill="white"/>
<path d="M66.2475 18.24C65.1275 18.24 64.1515 18.024 63.3195 17.592C62.4875 17.16 61.8395 16.56 61.3755 15.792C60.9275 15.008 60.7035 14.096 60.7035 13.056V9.74398C60.7035 8.70398 60.9275 7.79998 61.3755 7.03198C61.8395 6.24798 62.4875 5.63998 63.3195 5.20798C64.1515 4.77598 65.1275 4.55998 66.2475 4.55998C67.3515 4.55998 68.3115 4.77598 69.1275 5.20798C69.9595 5.63998 70.5995 6.24798 71.0475 7.03198C71.5115 7.79998 71.7435 8.70398 71.7435 9.74398V12.12H63.6075V13.056C63.6075 13.984 63.8315 14.688 64.2795 15.168C64.7275 15.632 65.3915 15.864 66.2715 15.864C66.9435 15.864 67.4875 15.752 67.9035 15.528C68.3195 15.288 68.5835 14.944 68.6955 14.496H71.6475C71.4235 15.632 70.8155 16.544 69.8235 17.232C68.8475 17.904 67.6555 18.24 66.2475 18.24ZM68.8395 10.44V9.71998C68.8395 8.80798 68.6235 8.11198 68.1915 7.63198C67.7595 7.13598 67.1115 6.88798 66.2475 6.88798C65.3835 6.88798 64.7275 7.13598 64.2795 7.63198C63.8315 8.12798 63.6075 8.83198 63.6075 9.74398V10.248L69.0555 10.2L68.8395 10.44Z" fill="white"/>
<path d="M82.0541 18C80.7901 18 79.7981 17.648 79.0781 16.944C78.3741 16.24 78.0221 15.272 78.0221 14.04V7.51198H74.4461V4.79998H78.0221V1.07998H81.0461V4.79998H86.1101V7.51198H81.0461V14.04C81.0461 14.872 81.4541 15.288 82.2701 15.288H85.8701V18H82.0541Z" fill="white"/>
<path d="M95.0047 18.24C94.3167 18.24 93.7647 18.04 93.3487 17.64C92.9487 17.24 92.7487 16.696 92.7487 16.008C92.7487 15.32 92.9487 14.776 93.3487 14.376C93.7647 13.96 94.3167 13.752 95.0047 13.752C95.6927 13.752 96.2367 13.96 96.6367 14.376C97.0527 14.776 97.2607 15.32 97.2607 16.008C97.2607 16.696 97.0527 17.24 96.6367 17.64C96.2367 18.04 95.6927 18.24 95.0047 18.24Z" fill="white"/>
<path d="M108.891 18.216C107.883 18.216 107.003 18.056 106.251 17.736C105.499 17.416 104.907 16.976 104.475 16.416C104.059 15.84 103.835 15.168 103.803 14.4H106.803C106.835 14.816 107.035 15.152 107.403 15.408C107.787 15.664 108.283 15.792 108.891 15.792H109.947C110.683 15.792 111.235 15.648 111.603 15.36C111.971 15.072 112.155 14.68 112.155 14.184C112.155 13.72 111.987 13.36 111.651 13.104C111.331 12.832 110.827 12.656 110.139 12.576L108.507 12.336C107.003 12.128 105.899 11.728 105.195 11.136C104.491 10.544 104.139 9.65598 104.139 8.47198C104.139 7.23998 104.555 6.28798 105.387 5.61598C106.219 4.92798 107.443 4.58398 109.059 4.58398H109.971C111.443 4.58398 112.619 4.91198 113.499 5.56798C114.379 6.22398 114.851 7.10398 114.915 8.20798H111.915C111.867 7.85598 111.667 7.56798 111.315 7.34398C110.979 7.11998 110.531 7.00798 109.971 7.00798H109.059C108.371 7.00798 107.867 7.13598 107.547 7.39198C107.243 7.63198 107.091 7.99198 107.091 8.47198C107.091 8.91998 107.227 9.25598 107.499 9.47998C107.771 9.68798 108.211 9.83998 108.819 9.93598L110.523 10.176C112.091 10.4 113.243 10.824 113.979 11.448C114.731 12.056 115.107 12.96 115.107 14.16C115.107 15.44 114.667 16.44 113.787 17.16C112.923 17.864 111.643 18.216 109.947 18.216H108.891Z" fill="white"/>
<path d="M123.81 18.24C122.69 18.24 121.714 18.024 120.882 17.592C120.05 17.16 119.402 16.56 118.938 15.792C118.49 15.008 118.266 14.096 118.266 13.056V9.74398C118.266 8.70398 118.49 7.79998 118.938 7.03198C119.402 6.24798 120.05 5.63998 120.882 5.20798C121.714 4.77598 122.69 4.55998 123.81 4.55998C124.914 4.55998 125.874 4.77598 126.69 5.20798C127.522 5.63998 128.162 6.24798 128.61 7.03198C129.074 7.79998 129.306 8.70398 129.306 9.74398V12.12H121.17V13.056C121.17 13.984 121.394 14.688 121.842 15.168C122.29 15.632 122.954 15.864 123.834 15.864C124.506 15.864 125.05 15.752 125.466 15.528C125.882 15.288 126.146 14.944 126.258 14.496H129.21C128.986 15.632 128.378 16.544 127.386 17.232C126.41 17.904 125.218 18.24 123.81 18.24ZM126.402 10.44V9.71998C126.402 8.80798 126.186 8.11198 125.754 7.63198C125.322 7.13598 124.674 6.88798 123.81 6.88798C122.946 6.88798 122.29 7.13598 121.842 7.63198C121.394 8.12798 121.17 8.83198 121.17 9.74398V10.248L126.618 10.2L126.402 10.44Z" fill="white"/>
<path d="M138.249 18.24C137.129 18.24 136.145 18.032 135.297 17.616C134.465 17.184 133.817 16.584 133.353 15.816C132.889 15.032 132.657 14.112 132.657 13.056V9.74398C132.657 8.67198 132.889 7.75198 133.353 6.98398C133.817 6.21598 134.465 5.62398 135.297 5.20798C136.145 4.77598 137.129 4.55998 138.249 4.55998C139.913 4.55998 141.241 4.99198 142.233 5.85598C143.225 6.70398 143.745 7.86398 143.793 9.33598H140.793C140.745 8.64798 140.497 8.11998 140.049 7.75198C139.617 7.36798 139.017 7.17598 138.249 7.17598C137.449 7.17598 136.817 7.39998 136.353 7.84798C135.889 8.27998 135.657 8.90398 135.657 9.71998V13.056C135.657 13.872 135.889 14.504 136.353 14.952C136.817 15.4 137.449 15.624 138.249 15.624C139.017 15.624 139.617 15.44 140.049 15.072C140.497 14.688 140.745 14.152 140.793 13.464H143.793C143.745 14.936 143.225 16.104 142.233 16.968C141.241 17.816 139.913 18.24 138.249 18.24Z" fill="white"/>
<path d="M154.007 18C152.743 18 151.751 17.648 151.031 16.944C150.327 16.24 149.975 15.272 149.975 14.04V7.51198H146.399V4.79998H149.975V1.07998H152.999V4.79998H158.063V7.51198H152.999V14.04C152.999 14.872 153.407 15.288 154.223 15.288H157.823V18H154.007Z" fill="white"/>
<path d="M21.4611 10.1706C19.1683 10.1706 17.303 8.41649 17.303 6.26034C17.303 4.10424 19.1683 2.35013 21.4611 2.35013C23.7539 2.35013 25.6192 4.10424 25.6192 6.26034C25.6192 8.41649 23.7539 10.1706 21.4611 10.1706ZM21.4611 3.33814C19.7837 3.33814 18.4191 4.64902 18.4191 6.26034C18.4191 7.87165 19.7837 9.18259 21.4611 9.18259C23.1385 9.18259 24.5031 7.87165 24.5031 6.26034C24.5031 4.64902 23.1385 3.33814 21.4611 3.33814Z" fill="#00BFA6"/>
<path d="M21.4703 10.0773C19.1725 10.0773 17.303 8.26561 17.303 6.03863C17.303 3.81171 19.1725 1.99998 21.4703 1.99998C23.7681 1.99998 25.6376 3.81171 25.6376 6.03863C25.6376 8.26561 23.7681 10.0773 21.4703 10.0773ZM21.4703 3.02045C19.7892 3.02045 18.4215 4.37439 18.4215 6.03863C18.4215 7.70287 19.7892 9.05688 21.4703 9.05688C23.1514 9.05688 24.519 7.70287 24.519 6.03863C24.519 4.37439 23.1514 3.02045 21.4703 3.02045Z" fill="#00BFA6"/>
<path d="M25.5177 18H17.6252C16.9292 17.9993 16.2619 17.7467 15.7698 17.2977C15.2776 16.8487 15.0008 16.24 15 15.605V8.54208C15.0006 8.10735 15.1901 7.69058 15.527 7.38318C15.864 7.07578 16.3208 6.90287 16.7973 6.90237H26.3456C26.8221 6.90287 27.279 7.07578 27.6159 7.38318C27.9528 7.69058 28.1423 8.10735 28.1429 8.54208V15.605C28.1421 16.24 27.8653 16.8487 27.3731 17.2977C26.881 17.7467 26.2137 17.9993 25.5177 18Z" fill="white"/>
<path d="M23.0657 11.5748C23.0659 11.3254 22.9933 11.0804 22.8552 10.8651C22.7171 10.6499 22.5186 10.472 22.2802 10.35C22.0418 10.228 21.772 10.1661 21.4986 10.1709C21.2253 10.1756 20.9582 10.2467 20.725 10.3769C20.4918 10.507 20.3009 10.6916 20.1718 10.9115C20.0428 11.1314 19.9803 11.3787 19.9909 11.6279C20.0014 11.8772 20.0846 12.1193 20.2319 12.3295C20.3791 12.5396 20.5851 12.7102 20.8286 12.8236V15.0189H22.2268V12.8236C22.4792 12.7062 22.6912 12.5275 22.8392 12.3071C22.9873 12.0867 23.0656 11.8333 23.0657 11.5748Z" fill="white"/>
<path d="M23.0657 11.5748C23.0659 11.3254 22.9933 11.0804 22.8552 10.8651C22.7171 10.6499 22.5186 10.472 22.2802 10.35C22.0418 10.228 21.772 10.1661 21.4986 10.1709C21.2253 10.1756 20.9582 10.2467 20.725 10.3769C20.4918 10.507 20.3009 10.6916 20.1718 10.9115C20.0428 11.1314 19.9803 11.3787 19.9909 11.6279C20.0014 11.8772 20.0846 12.1193 20.2319 12.3295C20.3791 12.5396 20.5851 12.7102 20.8286 12.8236V15.0189H22.2268V12.8236C22.4792 12.7062 22.6912 12.5275 22.8392 12.3071C22.9873 12.0867 23.0656 11.8333 23.0657 11.5748Z" fill="#2F2E41"/>
<path d="M0.656494 18V0.47998H6.20049C7.36849 0.47998 8.37649 0.695981 9.22449 1.12798C10.0885 1.55998 10.7605 2.16798 11.2405 2.95198C11.7205 3.71998 11.9605 4.63198 11.9605 5.68798C11.9605 6.83998 11.6645 7.85598 11.0725 8.73598C10.4965 9.61598 9.7125 10.24 8.7205 10.608L12.2005 18H8.84049L5.79249 11.04H3.65649V18H0.656494ZM3.65649 8.39998H6.20049C7.04849 8.39998 7.71249 8.16798 8.19249 7.70398C8.67249 7.23998 8.91249 6.59998 8.91249 5.78398C8.91249 4.95198 8.67249 4.30398 8.19249 3.83998C7.71249 3.35998 7.04849 3.11998 6.20049 3.11998H3.65649V8.39998Z" fill="white"/>
</svg>
